<svg width="534" height="69" viewBox="0 0 534 69" fill="none" xmlns="http://www.w3.org/2000/svg">
<g filter="url(#filter0_d_326_87)">
<path d="M23.4 53L21.9858 54.4142L23.3953 55.8237L24.8095 54.4189L23.4 53ZM4.2 33.8L2.78579 32.3858L1.37157 33.8L2.78579 35.2142L4.2 33.8ZM23.4 14.6L24.8095 13.1811L23.3953 11.7763L21.9858 13.1858L23.4 14.6ZM29.4 20.56L30.7909 21.9971L32.2566 20.5786L30.8095 19.1411L29.4 20.56ZM15.72 33.8L14.3291 32.3629L12.8442 33.8L14.3291 35.2371L15.72 33.8ZM29.4 47.04L30.8095 48.4589L32.2566 47.0214L30.7909 45.6029L29.4 47.04ZM24.8142 51.5858L5.61421 32.3858L2.78579 35.2142L21.9858 54.4142L24.8142 51.5858ZM5.61421 35.2142L24.8142 16.0142L21.9858 13.1858L2.78579 32.3858L5.61421 35.2142ZM21.9905 16.0189L27.9905 21.9789L30.8095 19.1411L24.8095 13.1811L21.9905 16.0189ZM28.0091 19.1229L14.3291 32.3629L17.1109 35.2371L30.7909 21.9971L28.0091 19.1229ZM14.3291 35.2371L28.0091 48.4771L30.7909 45.6029L17.1109 32.3629L14.3291 35.2371ZM27.9905 45.6211L21.9905 51.5811L24.8095 54.4189L30.8095 48.4589L27.9905 45.6211ZM60.4556 58.24L59.6972 60.0906L59.7063 60.0943L59.7154 60.098L60.4556 58.24ZM51.8556 52.4L50.4116 53.7838L50.4191 53.7916L51.8556 52.4ZM46.0956 43L44.2208 43.6964L44.2224 43.7008L46.0956 43ZM47.5356 14.08L49.305 15.0124L49.3073 15.008L47.5356 14.08ZM57.1756 3.8L58.1813 5.5288L58.1897 5.52386L57.1756 3.8ZM87.8156 5.16L86.5662 6.72174L86.5718 6.72615L86.5773 6.73053L87.8156 5.16ZM96.2556 19L96.5688 20.9753L98.7187 20.6345L98.1974 18.5211L96.2556 19ZM86.4156 20.56L84.5109 21.1701L85.0343 22.804L86.7288 22.5353L86.4156 20.56ZM81.0556 12.4L79.7801 13.9405L79.7901 13.9487L81.0556 12.4ZM71.5756 9.32L71.548 11.3198L71.5618 11.32H71.5756V9.32ZM61.9356 11.84L63.0569 13.4961L61.9356 11.84ZM56.1356 19.16L54.2885 18.393L54.2858 18.3997L54.283 18.4064L56.1356 19.16ZM56.1356 41.2L54.2853 41.9591L54.2876 41.9647L56.1356 41.2ZM61.8956 48.44L60.7743 50.0961L60.7823 50.1015L61.8956 48.44ZM71.5756 51.12L71.548 53.1198L71.5573 53.1199L71.5756 51.12ZM79.2156 49.56L80.0925 51.3575L80.1013 51.3532L80.1101 51.3489L79.2156 49.56ZM84.5756 44.64L86.2647 45.7111L86.2705 45.7018L84.5756 44.64ZM87.3756 36.36L89.3549 36.6473L89.6869 34.36H87.3756V36.36ZM77.2156 36.36H75.2156V38.36H77.2156V36.36ZM77.2156 28.8V26.8H75.2156V28.8H77.2156ZM97.6156 28.8L99.6002 28.5519L99.3812 26.8H97.6156V28.8ZM97.7356 30.68L99.7346 30.6155V30.6155L97.7356 30.68ZM94.5356 46.68L92.7535 45.7721L92.7513 45.7766L94.5356 46.68ZM85.3356 56.6L86.3646 58.315L85.3356 56.6ZM70.9756 58.2C67.481 58.2 64.227 57.5896 61.1958 56.382L59.7154 60.098C63.2443 61.5038 67.0035 62.2 70.9756 62.2V58.2ZM61.2141 56.3894C58.2196 55.1621 55.5829 53.3731 53.2921 51.0084L50.4191 53.7916C53.0884 56.5469 56.185 58.6512 59.6972 60.0906L61.2141 56.3894ZM53.2996 51.0162C51.055 48.674 49.2714 45.781 47.9688 42.2992L44.2224 43.7008C45.6932 47.6323 47.7496 51.0061 50.4116 53.7838L53.2996 51.0162ZM47.9705 42.3036C46.6816 38.8336 46.0156 34.8097 46.0156 30.2H42.0156C42.0156 35.1903 42.7363 39.6997 44.2208 43.6964L47.9705 42.3036ZM46.0156 30.2C46.0156 24.1518 47.1431 19.1152 49.305 15.0124L45.7662 13.1476C43.2349 17.9515 42.0156 23.6615 42.0156 30.2H46.0156ZM49.3073 15.008C51.4922 10.8369 54.4504 7.69903 58.1813 5.52878L56.17 2.07121C51.7409 4.64763 48.2724 8.36311 45.764 13.152L49.3073 15.008ZM58.1897 5.52386C61.9374 3.31933 66.1821 2.2 70.9756 2.2V-1.8C65.5291 -1.8 60.5739 -0.519339 56.1616 2.07613L58.1897 5.52386ZM70.9756 2.2C77.7691 2.2 82.8917 3.78212 86.5662 6.72174L89.065 3.59826C84.4729 -0.0754585 78.3688 -1.8 70.9756 -1.8V2.2ZM86.5773 6.73053C90.3349 9.69323 92.9363 13.8937 94.3138 19.4789L98.1974 18.5211C96.6416 12.2129 93.6164 7.18676 89.0539 3.58946L86.5773 6.73053ZM95.9425 17.0247L86.1025 18.5847L86.7288 22.5353L96.5688 20.9753L95.9425 17.0247ZM88.3203 19.9499C87.1236 16.2138 85.1352 13.151 82.3212 10.8513L79.7901 13.9487C81.936 15.7023 83.521 18.0795 84.5109 21.1701L88.3203 19.9499ZM82.3311 10.8595C79.4264 8.45449 75.7877 7.32 71.5756 7.32V11.32C75.0435 11.32 77.7249 12.2388 79.7802 13.9405L82.3311 10.8595ZM71.6032 7.32019C67.4307 7.26263 63.7896 8.16938 60.8143 10.1839L63.0569 13.4961C65.2017 12.0439 67.9872 11.2707 71.548 11.3198L71.6032 7.32019ZM60.8143 10.1839C57.898 12.1585 55.7292 14.9237 54.2885 18.393L57.9827 19.927C59.1554 17.1029 60.8532 14.9882 63.0569 13.4961L60.8143 10.1839ZM54.283 18.4064C52.8854 21.8424 52.2156 25.7884 52.2156 30.2H56.2156C56.2156 26.185 56.8259 22.771 57.9882 19.9136L54.283 18.4064ZM52.2156 30.2C52.2156 34.611 52.8852 38.5463 54.2853 41.9591L57.986 40.4409C56.8261 37.6137 56.2156 34.2157 56.2156 30.2H52.2156ZM54.2876 41.9647C55.7044 45.3886 57.863 48.1249 60.7743 50.0961L63.0169 46.7839C60.8082 45.2884 59.1269 43.1981 57.9837 40.4353L54.2876 41.9647ZM60.7823 50.1015C63.7604 52.0971 67.3881 53.0624 71.548 53.1198L71.6032 49.1202C68.0298 49.0709 65.2042 48.2495 63.009 46.7785L60.7823 50.1015ZM71.5573 53.1199C74.7142 53.1489 77.5779 52.5842 80.0925 51.3575L78.3388 47.7625C76.48 48.6692 74.2504 49.1445 71.594 49.1201L71.5573 53.1199ZM80.1101 51.3489C82.6414 50.0832 84.6953 48.1859 86.2646 45.7111L82.8866 43.5689C81.6827 45.4675 80.1632 46.8501 78.3212 47.7711L80.1101 51.3489ZM86.2705 45.7018C87.8398 43.1969 88.8457 40.1552 89.3549 36.6473L85.3964 36.0727C84.9456 39.1781 84.0848 41.6564 82.8808 43.5782L86.2705 45.7018ZM87.3756 34.36H77.2156V38.36H87.3756V34.36ZM79.2156 36.36V28.8H75.2156V36.36H79.2156ZM77.2156 30.8H97.6156V26.8H77.2156V30.8ZM95.6311 29.0481C95.6727 29.3813 95.7105 29.9342 95.7367 30.7445L99.7346 30.6155C99.7074 29.7724 99.6652 29.072 99.6002 28.5519L95.6311 29.0481ZM95.7367 30.7445C95.7639 31.5885 95.7756 32.0407 95.7756 32.16H99.7756C99.7756 31.9593 99.7607 31.4248 99.7346 30.6155L95.7367 30.7445ZM95.7756 32.16C95.7756 37.3299 94.751 41.8512 92.7535 45.7721L96.3177 47.5879C98.6403 43.0288 99.7756 37.8701 99.7756 32.16H95.7756ZM92.7513 45.7766C90.786 49.658 87.9792 52.6815 84.3066 54.885L86.3646 58.315C90.6921 55.7185 94.0186 52.1286 96.3199 47.5835L92.7513 45.7766ZM84.3066 54.885C80.6732 57.0651 76.2575 58.2 70.9756 58.2V62.2C76.8404 62.2 81.9981 60.9349 86.3646 58.315L84.3066 54.885ZM103.409 59H101.409V61H103.409V59ZM103.409 15.8V13.8H101.409V15.8H103.409ZM111.929 15.8H113.929V13.8H111.929V15.8ZM111.929 26.32L110.341 27.5349L113.929 32.2278V26.32H111.929ZM110.889 24.96L109.014 24.2654L108.631 25.2992L109.301 26.1749L110.889 24.96ZM113.009 21.04L111.414 19.8343L111.409 19.84L113.009 21.04ZM116.249 18.08L117.3 19.7821L117.334 19.7606L117.368 19.7377L116.249 18.08ZM119.769 16.4L120.366 18.309L120.378 18.3052L120.39 18.3012L119.769 16.4ZM123.769 15.64L123.887 17.6365L123.906 17.6354L123.926 17.6339L123.769 15.64ZM127.729 15.8H129.729V14.1057L128.058 13.8272L127.729 15.8ZM127.729 24.8L127.169 26.72L129.729 27.4667V24.8H127.729ZM123.289 24.44L123.131 22.4463L123.129 22.4465L123.289 24.44ZM118.809 25.84L119.76 27.5998L119.8 27.5783L119.838 27.555L118.809 25.84ZM115.529 28.6L113.939 27.3879L113.929 27.4L113.92 27.4123L115.529 28.6ZM113.689 32.44L115.614 32.9846L115.616 32.9753L113.689 32.44ZM113.089 59V61H115.089V59H113.089ZM105.409 59V15.8H101.409V59H105.409ZM103.409 17.8H111.929V13.8H103.409V17.8ZM109.929 15.8V26.32H113.929V15.8H109.929ZM113.518 25.1051L112.478 23.7451L109.301 26.1749L110.341 27.5349L113.518 25.1051ZM112.765 25.6546C113.234 24.387 113.85 23.2519 114.609 22.24L111.409 19.84C110.408 21.1747 109.611 22.653 109.014 24.2654L112.765 25.6546ZM114.605 22.2457C115.366 21.2392 116.262 20.4224 117.3 19.7821L115.199 16.3779C113.73 17.2843 112.467 18.4408 111.414 19.8343L114.605 22.2457ZM117.368 19.7377C118.267 19.1309 119.263 18.6535 120.366 18.309L119.173 14.491C117.715 14.9465 116.365 15.5891 115.13 16.4223L117.368 19.7377ZM120.39 18.3012C121.535 17.9273 122.7 17.7064 123.887 17.6365L123.652 13.6434C122.119 13.7336 120.617 14.0194 119.149 14.4988L120.39 18.3012ZM123.926 17.6339C125.132 17.5393 126.289 17.5875 127.401 17.7728L128.058 13.8272C126.61 13.5858 125.127 13.5274 123.613 13.6461L123.926 17.6339ZM125.729 15.8V24.8H129.729V15.8H125.729ZM128.289 22.88C126.724 22.4234 124.992 22.2986 123.131 22.4463L123.448 26.4337C124.947 26.3147 126.175 26.4299 127.169 26.72L128.289 22.88ZM123.129 22.4465C121.189 22.6029 119.395 23.1561 117.78 24.125L119.838 27.555C120.89 26.9239 122.083 26.5438 123.45 26.4335L123.129 22.4465ZM117.859 24.0802C116.295 24.9248 114.977 26.0251 113.939 27.3879L117.12 29.8121C117.789 28.9349 118.657 28.1952 119.76 27.5998L117.859 24.0802ZM113.92 27.4123C112.938 28.7426 112.223 30.2471 111.762 31.9047L115.616 32.9753C115.956 31.7529 116.467 30.6974 117.139 29.7877L113.92 27.4123ZM111.765 31.8954C111.309 33.5065 111.089 35.2252 111.089 37.04H115.089C115.089 35.5481 115.27 34.2002 115.614 32.9846L111.765 31.8954ZM111.089 37.04V59H115.089V37.04H111.089ZM113.089 57H103.409V61H113.089V57ZM140.301 57.36L141.295 55.6244L140.301 57.36ZM132.541 49.48L130.787 50.4406L130.793 50.4513L132.541 49.48ZM132.501 25.6L134.273 26.527L134.276 26.5214L132.501 25.6ZM140.061 17.48L139.039 15.7613H139.039L140.061 17.48ZM162.661 17.76L161.542 19.4175L161.55 19.423L161.558 19.4284L162.661 17.76ZM169.661 26.6L167.803 27.3405L169.661 26.6ZM171.381 40.08V42.08H173.242L173.376 40.224L171.381 40.08ZM161.821 40.08H159.821V42.08H161.821V40.08ZM161.821 36.56H163.821L163.821 36.5486L161.821 36.56ZM159.341 26.28L160.939 25.0768L159.341 26.28ZM142.861 26.72L144.43 27.961L144.436 27.9526L142.861 26.72ZM142.861 47.56L141.3 48.8094L142.861 47.56ZM157.381 49.6L158.422 51.3079L158.429 51.3033L157.381 49.6ZM161.381 45L161.96 43.0857L160.302 42.5839L159.569 44.1542L161.381 45ZM170.901 47.88L172.742 48.6617L173.613 46.6109L171.48 45.9657L170.901 47.88ZM163.221 56.96L162.164 55.2625L162.158 55.2662L163.221 56.96ZM136.941 40.08H134.941V42.08H136.941V40.08ZM136.941 32.8V30.8H134.941V32.8H136.941ZM166.661 32.8H168.661V30.8H166.661V32.8ZM166.661 40.08V42.08H168.661V40.08H166.661ZM151.821 58.2C147.744 58.2 144.257 57.3202 141.295 55.6244L139.307 59.0956C142.959 61.1864 147.152 62.2 151.821 62.2V58.2ZM141.295 55.6244C138.308 53.9139 135.981 51.5528 134.29 48.5087L130.793 50.4513C132.835 54.1272 135.681 57.0194 139.307 59.0956L141.295 55.6244ZM134.295 48.5194C132.638 45.4934 131.781 41.9657 131.781 37.88H127.781C127.781 42.541 128.764 46.7466 130.787 50.4406L134.295 48.5194ZM131.781 37.88C131.781 33.4168 132.638 29.6543 134.273 26.527L130.729 24.673C128.738 28.4791 127.781 32.9032 127.781 37.88H131.781ZM134.276 26.5214C135.927 23.342 138.193 20.9188 141.084 19.1987L139.039 15.7613C135.476 17.8812 132.702 20.8713 130.726 24.6786L134.276 26.5214ZM141.084 19.1987C143.963 17.4857 147.334 16.6 151.261 16.6V12.6C146.709 12.6 142.613 13.6343 139.039 15.7613L141.084 19.1987ZM151.261 16.6C155.42 16.6 158.811 17.5737 161.542 19.4175L163.78 16.1025C160.271 13.733 156.063 12.6 151.261 12.6V16.6ZM161.558 19.4284C164.334 21.2634 166.421 23.8712 167.803 27.3405L171.519 25.8595C169.862 21.7022 167.281 18.4166 163.764 16.0916L161.558 19.4284ZM167.803 27.3405C169.186 30.8092 169.744 34.987 169.386 39.936L173.376 40.224C173.766 34.8264 173.176 30.0174 171.519 25.8595L167.803 27.3405ZM171.381 38.08H161.821V42.08H171.381V38.08ZM163.821 40.08V36.56H159.821V40.08H163.821ZM163.821 36.5486C163.794 31.7078 162.954 27.7529 160.939 25.0768L157.744 27.4832C158.982 29.1271 159.795 32.0255 159.821 36.5714L163.821 36.5486ZM160.939 25.0768C158.828 22.2738 155.582 21.04 151.661 21.04V25.04C154.727 25.04 156.601 25.9662 157.744 27.4832L160.939 25.0768ZM151.661 21.04C147.279 21.04 143.684 22.4238 141.286 25.4874L144.436 27.9526C145.879 26.1096 148.15 25.04 151.661 25.04V21.04ZM141.293 25.479C138.981 28.4005 137.981 32.4779 137.981 37.4H141.981C141.981 32.9354 142.901 29.8929 144.43 27.961L141.293 25.479ZM137.981 37.4C137.981 42.0397 138.997 45.9317 141.3 48.8094L144.423 46.3106C142.885 44.3883 141.981 41.507 141.981 37.4H137.981ZM141.3 48.8094C143.675 51.779 147.107 53.16 151.261 53.16V49.16C148.056 49.16 145.887 48.141 144.423 46.3106L141.3 48.8094ZM151.261 53.16C153.932 53.16 156.347 52.5721 158.422 51.3079L156.341 47.8921C155.002 48.7079 153.337 49.16 151.261 49.16V53.16ZM158.429 51.3033C160.524 50.0143 162.109 48.1689 163.194 45.8458L159.569 44.1542C158.786 45.8311 157.705 47.0524 156.333 47.8967L158.429 51.3033ZM160.802 46.9143L170.322 49.7943L171.48 45.9657L161.96 43.0857L160.802 46.9143ZM169.06 47.0983C167.562 50.6274 165.268 53.3281 162.164 55.2625L164.279 58.6575C168.108 56.2719 170.934 52.9192 172.742 48.6617L169.06 47.0983ZM162.158 55.2662C159.044 57.2211 155.615 58.2 151.821 58.2V62.2C156.348 62.2 160.518 61.0189 164.285 58.6538L162.158 55.2662ZM138.941 40.08V32.8H134.941V40.08H138.941ZM136.941 34.8H166.661V30.8H136.941V34.8ZM164.661 32.8V40.08H168.661V32.8H164.661ZM166.661 38.08H136.941V42.08H166.661V38.08ZM181.285 58.44L180.314 60.1883L180.322 60.1929L180.33 60.1974L181.285 58.44ZM176.365 53.68L174.616 54.6493L174.621 54.6583L174.626 54.6672L176.365 53.68ZM175.765 41.56L177.609 42.3335L177.614 42.323L175.765 41.56ZM178.965 37.24L180.245 38.7764L180.254 38.7695L180.262 38.7625L178.965 37.24ZM184.565 34.24L183.95 32.3369L183.938 32.3408L183.926 32.3448L184.565 34.24ZM190.645 32.72L190.266 30.7563L190.261 30.7571L190.645 32.72ZM198.245 31.48L198.517 33.4614L198.525 33.4603L198.533 33.4591L198.245 31.48ZM206.845 30.2L207.835 31.9377L206.545 28.2226L206.845 30.2ZM203.405 32.16L201.405 32.1421L201.374 35.619L204.395 33.8977L203.405 32.16ZM201.405 25.56L199.964 26.9468L201.405 25.56ZM188.885 24.8L189.779 26.5889L188.885 24.8ZM185.085 29.48L184.486 31.3883L186.375 31.9806L186.987 30.0987L185.085 29.48ZM176.285 26.72L174.365 26.1595L173.816 28.0416L175.686 28.6283L176.285 26.72ZM182.365 17.92L181.181 16.3081L181.174 16.3131L182.365 17.92ZM204.645 16.48L203.853 18.3166L203.859 18.3191L204.645 16.48ZM211.165 22.64L209.373 23.5277L209.378 23.5373L209.382 23.5469L211.165 22.64ZM212.565 27.32L210.575 27.519L210.575 27.5223L212.565 27.32ZM212.805 59V61H214.805V59H212.805ZM204.365 59H202.365V61H204.365V59ZM204.365 49.64L205.836 48.285L202.365 44.5164V49.64H204.365ZM205.765 51.16L207.462 52.2187L208.268 50.9259L207.236 49.805L205.765 51.16ZM198.925 58.04L199.898 59.7875L199.904 59.7841L198.925 58.04ZM196.725 51.36L197.619 53.1489L196.725 51.36ZM200.405 48.52L198.869 47.2396L198.859 47.2505L198.851 47.2616L200.405 48.52ZM202.285 45.36L200.436 44.5965L200.407 44.6687L200.383 44.743L202.285 45.36ZM203.125 41.16L201.127 41.0601L201.127 41.0762L201.126 41.0922L203.125 41.16ZM203.245 37.28L203.815 35.3629L201.245 34.5989V37.28H203.245ZM206.205 38.16L206.513 40.1361L206.775 36.2429L206.205 38.16ZM198.725 39.36L198.396 37.3872L198.725 39.36ZM193.365 40.36L193.75 42.3225L193.767 42.3192L193.784 42.3156L193.365 40.36ZM189.405 41.36L188.786 39.4583L188.759 39.467L188.732 39.4765L189.405 41.36ZM184.765 44.6L183.062 43.5518L183.047 43.576L183.033 43.6006L184.765 44.6ZM184.965 49.88L183.284 50.9643L183.293 50.9769L183.301 50.9894L184.965 49.88ZM187.285 51.8L186.429 53.6075L186.438 53.6117L186.447 53.6159L187.285 51.8ZM189.205 58.2C186.331 58.2 184.038 57.6595 182.24 56.6826L180.33 60.1974C182.852 61.5672 185.839 62.2 189.205 62.2V58.2ZM182.256 56.6917C180.388 55.6536 179.027 54.3185 178.104 52.6928L174.626 54.6672C175.943 56.9882 177.862 58.8264 180.314 60.1883L182.256 56.6917ZM178.114 52.7107C177.194 51.0496 176.725 49.2125 176.725 47.16H172.725C172.725 49.8542 173.349 52.3637 174.616 54.6493L178.114 52.7107ZM176.725 47.16C176.725 45.3035 177.034 43.7058 177.609 42.3335L173.921 40.7865C173.109 42.7208 172.725 44.8565 172.725 47.16H176.725ZM177.614 42.323C178.179 40.9527 179.047 39.7753 180.245 38.7764L177.685 35.7036C176.003 37.1047 174.737 38.8073 173.916 40.797L177.614 42.323ZM180.262 38.7625C181.463 37.7397 183.087 36.8489 185.204 36.1352L183.926 32.3448C181.456 33.1777 179.347 34.2869 177.668 35.7175L180.262 38.7625ZM185.18 36.1431C186.819 35.6136 188.765 35.1252 191.029 34.6829L190.261 30.7571C187.885 31.2215 185.778 31.7464 183.95 32.3369L185.18 36.1431ZM191.024 34.6837C193.331 34.2382 195.828 33.8305 198.517 33.4614L197.973 29.4986C195.222 29.8761 192.653 30.2952 190.266 30.7563L191.024 34.6837ZM198.533 33.4591C201.284 33.0585 204.155 32.6312 207.145 32.1773L206.545 28.2226C203.562 28.6754 200.699 29.1015 197.957 29.5009L198.533 33.4591ZM205.855 28.4623L202.415 30.4223L204.395 33.8977L207.835 31.9377L205.855 28.4623ZM205.405 32.1779C205.434 28.9358 204.72 26.1205 202.846 24.1732L199.964 26.9468C200.81 27.8262 201.429 29.4109 201.405 32.1421L205.405 32.1779ZM202.846 24.1732C200.927 22.1787 197.96 21.44 194.525 21.44V25.44C197.543 25.44 199.163 26.1146 199.964 26.9468L202.846 24.1732ZM194.525 21.44C192.255 21.44 190.07 21.9716 187.991 23.0111L189.779 26.5889C191.327 25.8151 192.902 25.44 194.525 25.44V21.44ZM187.991 23.0111C185.626 24.1933 184.042 26.2208 183.183 28.8613L186.987 30.0987C187.568 28.3126 188.517 27.2201 189.779 26.5889L187.991 23.0111ZM185.684 27.5717L176.884 24.8117L175.686 28.6283L184.486 31.3883L185.684 27.5717ZM178.205 27.2805C179.152 24.0354 180.929 21.4737 183.556 19.5269L181.174 16.3131C177.828 18.7929 175.551 22.0979 174.365 26.1595L178.205 27.2805ZM183.549 19.5319C186.114 17.6477 189.706 16.6 194.525 16.6V12.6C189.157 12.6 184.642 13.7656 181.181 16.3081L183.549 19.5319ZM194.525 16.6C198.149 16.6 201.244 17.1914 203.853 18.3165L205.437 14.6435C202.233 13.2619 198.581 12.6 194.525 12.6V16.6ZM203.859 18.3191C206.355 19.3857 208.171 21.1021 209.373 23.5277L212.957 21.7523C211.332 18.4712 208.801 16.081 205.431 14.6408L203.859 18.3191ZM209.382 23.5469C210.05 24.8594 210.441 26.1805 210.575 27.519L214.555 27.121C214.369 25.2595 213.826 23.4606 212.948 21.7331L209.382 23.5469ZM210.575 27.5223C210.727 29.0178 210.805 30.6692 210.805 32.48H214.805C214.805 30.5574 214.723 28.7689 214.555 27.1176L210.575 27.5223ZM210.805 32.48V59H214.805V32.48H210.805ZM212.805 57H204.365V61H212.805V57ZM206.365 59V49.64H202.365V59H206.365ZM202.894 50.9949L204.294 52.515L207.236 49.805L205.836 48.285L202.894 50.9949ZM204.068 50.1013C202.259 53.0002 200.207 55.0271 197.946 56.2959L199.904 59.7841C202.87 58.1195 205.377 55.5598 207.462 52.2187L204.068 50.1013ZM197.952 56.2925C195.742 57.5228 192.862 58.2 189.205 58.2V62.2C193.335 62.2 196.934 61.4372 199.898 59.7875L197.952 56.2925ZM191.125 54.52C193.542 54.52 195.731 54.0928 197.619 53.1489L195.831 49.5711C194.625 50.1738 193.081 50.52 191.125 50.52V54.52ZM197.619 53.1489C199.371 52.273 200.841 51.1602 201.959 49.7784L198.851 47.2616C198.156 48.1198 197.172 48.9004 195.831 49.5711L197.619 53.1489ZM201.941 49.8004C202.977 48.5581 203.764 47.283 204.187 45.977L200.383 44.743C200.166 45.4103 199.7 46.2419 198.869 47.2396L201.941 49.8004ZM204.134 46.1235C204.747 44.6389 205.064 42.9967 205.124 41.2278L201.126 41.0922C201.079 42.47 200.837 43.6278 200.436 44.5965L204.134 46.1235ZM205.122 41.2599C205.203 39.6443 205.245 38.3139 205.245 37.28H201.245C201.245 38.2194 201.207 39.4757 201.127 41.0601L205.122 41.2599ZM202.675 39.1971L205.635 40.0771L206.775 36.2429L203.815 35.3629L202.675 39.1971ZM205.897 36.1839C202.986 36.6379 200.485 37.0391 198.396 37.3872L199.054 41.3328C201.125 40.9876 203.611 40.5888 206.513 40.1361L205.897 36.1839ZM198.396 37.3872C196.296 37.7372 194.478 38.0761 192.946 38.4044L193.784 42.3156C195.239 42.0039 196.994 41.6762 199.054 41.3328L198.396 37.3872ZM192.98 38.3975C191.427 38.7025 190.026 39.0545 188.786 39.4583L190.024 43.2617C191.077 42.9188 192.317 42.6041 193.75 42.3225L192.98 38.3975ZM188.732 39.4765C187.49 39.9203 186.378 40.4593 185.43 41.1136L187.7 44.4064C188.298 43.994 189.08 43.5997 190.078 43.2435L188.732 39.4765ZM185.43 41.1136C184.462 41.7806 183.655 42.5881 183.062 43.5518L186.468 45.6482C186.729 45.2253 187.121 44.8061 187.7 44.4064L185.43 41.1136ZM183.033 43.6006C182.43 44.645 182.165 45.8146 182.165 47.04H186.165C186.165 46.3987 186.3 45.9417 186.497 45.5994L183.033 43.6006ZM182.165 47.04C182.165 48.4575 182.525 49.7871 183.284 50.9643L186.646 48.7957C186.338 48.3195 186.165 47.7558 186.165 47.04H182.165ZM183.301 50.9894C184.067 52.138 185.143 52.9984 186.429 53.6075L188.141 49.9925C187.4 49.6416 186.93 49.222 186.629 48.7706L183.301 50.9894ZM186.447 53.6159C187.821 54.25 189.406 54.52 191.125 54.52V50.52C189.804 50.52 188.829 50.31 188.123 49.9841L186.447 53.6159ZM246.139 59L246.506 60.966L248.139 60.6608V59H246.139ZM237.739 59.68L237.797 57.6808L237.787 57.6806L237.778 57.6804L237.739 59.68ZM230.419 58.2L229.606 60.0276L229.616 60.0318L229.625 60.0359L230.419 58.2ZM225.499 53.68L223.731 54.6146L223.737 54.6262L223.743 54.6377L225.499 53.68ZM223.939 47.96L225.938 47.9052L223.939 47.96ZM223.859 3.8V1.8H221.859V3.8H223.859ZM233.459 3.8H235.459V1.8H233.459V3.8ZM233.499 45.36L231.499 45.4008L231.5 45.4212L231.5 45.4416L233.499 45.36ZM234.339 48.56L236.054 47.531L236.049 47.5229L236.044 47.5149L234.339 48.56ZM238.939 51.24L239.115 49.2478L238.939 51.24ZM246.139 50.92H248.139V48.601L245.845 48.9417L246.139 50.92ZM216.019 23.36H214.019V25.36H216.019V23.36ZM216.019 15.8V13.8H214.019V15.8H216.019ZM246.139 15.8H248.139V13.8H246.139V15.8ZM246.139 23.36V25.36H248.139V23.36H246.139ZM245.771 57.034C243.05 57.5426 240.393 57.7565 237.797 57.6808L237.681 61.6792C240.578 61.7635 243.52 61.524 246.506 60.966L245.771 57.034ZM237.778 57.6804C235.277 57.6314 233.099 57.1796 231.212 56.3641L229.625 60.0359C232.058 61.0871 234.76 61.622 237.7 61.6796L237.778 57.6804ZM231.231 56.3724C229.468 55.5888 228.162 54.3855 227.255 52.7223L223.743 54.6377C225.076 57.0812 227.05 58.8912 229.606 60.0276L231.231 56.3724ZM227.267 52.7454C226.412 51.1271 225.982 49.5194 225.938 47.9052L221.939 48.0148C222.002 50.2939 222.613 52.4996 223.731 54.6146L227.267 52.7454ZM225.938 47.9052C225.885 45.9808 225.859 43.7995 225.859 41.36H221.859C221.859 43.8272 221.886 46.0459 221.939 48.0148L225.938 47.9052ZM225.859 41.36V3.8H221.859V41.36H225.859ZM223.859 5.8H233.459V1.8H223.859V5.8ZM231.459 3.8V40.8H235.459V3.8H231.459ZM231.459 40.8C231.459 42.5429 231.472 44.077 231.499 45.4008L235.498 45.3192C235.472 44.0297 235.459 42.5238 235.459 40.8H231.459ZM231.5 45.4416C231.563 46.975 231.897 48.4036 232.634 49.6051L236.044 47.5149C235.767 47.0631 235.541 46.3583 235.497 45.2784L231.5 45.4416ZM232.624 49.589C233.96 51.8168 236.116 52.9977 238.762 53.2322L239.115 49.2478C237.548 49.1089 236.637 48.5032 236.054 47.531L232.624 49.589ZM238.762 53.2322C241.063 53.4361 243.626 53.3152 246.433 52.8983L245.845 48.9417C243.265 49.3248 241.028 49.4173 239.115 49.2478L238.762 53.2322ZM244.139 50.92V59H248.139V50.92H244.139ZM218.019 23.36V15.8H214.019V23.36H218.019ZM216.019 17.8H246.139V13.8H216.019V17.8ZM244.139 15.8V23.36H248.139V15.8H244.139ZM246.139 21.36H216.019V25.36H246.139V21.36ZM276.204 56.44L275.154 58.1422L275.162 58.1471L276.204 56.44ZM266.724 45.88L264.924 46.7531L264.929 46.7617L266.724 45.88ZM266.724 14.52L264.929 13.6383L264.924 13.6469L266.724 14.52ZM276.204 4L277.246 5.70712L277.254 5.70217L276.204 4ZM307.604 5.2L306.401 6.7977L306.407 6.80231L307.604 5.2ZM316.924 18.6L317.455 20.5281L319.459 19.9756L318.83 17.9947L316.924 18.6ZM307.204 21.28L305.287 21.851L305.846 23.7289L307.735 23.2081L307.204 21.28ZM301.484 12.48L300.242 14.0478L300.252 14.0553L301.484 12.48ZM281.324 11.88L280.21 10.2185L280.202 10.2239L281.324 11.88ZM275.524 19.2L273.677 18.433L273.673 18.4409L275.524 19.2ZM273.564 30.2L271.564 30.1873V30.2H273.564ZM275.484 41.24L273.631 41.9936L273.635 42.0031L273.639 42.0126L275.484 41.24ZM281.324 48.52L282.437 46.8585L281.324 48.52ZM301.484 47.92L300.242 46.3522V46.3522L301.484 47.92ZM307.204 39.12L307.735 37.1919L305.85 36.6721L305.288 38.5453L307.204 39.12ZM316.924 41.8L318.83 42.4053L319.459 40.4244L317.455 39.8719L316.924 41.8ZM307.604 55.24L308.801 56.8423L308.807 56.8377L307.604 55.24ZM291.004 58.2C285.538 58.2 280.982 57.0132 277.246 54.7329L275.162 58.1471C279.639 60.8801 284.949 62.2 291.004 62.2V58.2ZM277.254 54.7378C273.481 52.4106 270.573 49.1812 268.519 44.9983L264.929 46.7617C267.301 51.5921 270.713 55.4027 275.154 58.1422L277.254 54.7378ZM268.523 45.0069C266.491 40.8187 265.444 35.9003 265.444 30.2H261.444C261.444 36.393 262.583 41.928 264.924 46.7531L268.523 45.0069ZM265.444 30.2C265.444 24.4997 266.491 19.5813 268.523 15.3931L264.924 13.6469C262.583 18.472 261.444 24.007 261.444 30.2H265.444ZM268.519 15.4017C270.572 11.2205 273.478 8.00689 277.246 5.70711L275.162 2.29288C270.716 5.00644 267.302 8.80618 264.929 13.6383L268.519 15.4017ZM277.254 5.70217C280.988 3.39838 285.542 2.2 291.004 2.2V-1.8C284.945 -1.8 279.632 -0.465054 275.154 2.29782L277.254 5.70217ZM291.004 2.2C297.298 2.2 302.385 3.77415 306.401 6.79769L308.807 3.60231C303.969 -0.0408154 297.989 -1.8 291.004 -1.8V2.2ZM306.407 6.80231C310.475 9.84137 313.348 13.9481 315.018 19.2053L318.83 17.9947C316.926 11.9986 313.586 7.17196 308.801 3.59768L306.407 6.80231ZM316.392 16.6719L306.672 19.3519L307.735 23.2081L317.455 20.5281L316.392 16.6719ZM309.121 20.709C307.9 16.6121 305.783 13.3034 302.716 10.9047L300.252 14.0553C302.571 15.8699 304.267 18.4279 305.287 21.851L309.121 20.709ZM302.726 10.9122C299.598 8.43508 295.633 7.28 291.004 7.28V11.28C294.961 11.28 297.983 12.2583 300.242 14.0478L302.726 10.9122ZM291.004 7.28C286.837 7.28 283.198 8.21638 280.21 10.2185L282.437 13.5415C284.623 12.077 287.437 11.28 291.004 11.28V7.28ZM280.202 10.2239C277.286 12.1985 275.117 14.9637 273.677 18.433L277.371 19.967C278.544 17.1429 280.241 15.0282 282.445 13.5361L280.202 10.2239ZM273.673 18.4409C272.275 21.8488 271.592 25.7795 271.564 30.1873L275.564 30.2127C275.589 26.1938 276.212 22.7912 277.374 19.9591L273.673 18.4409ZM271.564 30.2C271.564 34.6116 272.233 38.5576 273.631 41.9936L277.336 40.4864C276.174 37.629 275.564 34.215 275.564 30.2H271.564ZM273.639 42.0126C275.083 45.4616 277.27 48.211 280.21 50.1815L282.437 46.8585C280.204 45.3623 278.497 43.2584 277.329 40.4674L273.639 42.0126ZM280.21 50.1815C283.198 52.1836 286.837 53.12 291.004 53.12V49.12C287.437 49.12 284.623 48.3231 282.437 46.8585L280.21 50.1815ZM291.004 53.12C295.633 53.12 299.598 51.9649 302.726 49.4878L300.242 46.3522C297.983 48.1417 294.961 49.12 291.004 49.12V53.12ZM302.726 49.4878C305.782 47.0669 307.898 43.7655 309.119 39.6947L305.288 38.5453C304.269 41.9411 302.572 44.5064 300.242 46.3522L302.726 49.4878ZM306.672 41.0481L316.392 43.7281L317.455 39.8719L307.735 37.1919L306.672 41.0481ZM315.018 41.1947C313.348 46.453 310.473 50.5755 306.401 53.6423L308.807 56.8377C313.587 53.2378 316.926 48.4004 318.83 42.4053L315.018 41.1947ZM306.407 53.6377C302.391 56.6373 297.302 58.2 291.004 58.2V62.2C297.986 62.2 303.963 60.456 308.801 56.8423L306.407 53.6377ZM331.066 57.28L332.099 55.5675L331.066 57.28ZM323.546 49.24L321.766 50.1509L321.77 50.1592L321.774 50.1675L323.546 49.24ZM323.626 25.48L321.86 24.5417L323.626 25.48ZM331.186 17.48L330.164 15.7613L331.186 17.48ZM353.746 17.52L354.779 15.8075L353.746 17.52ZM361.266 25.6L359.491 26.5218L359.494 26.5275L361.266 25.6ZM361.226 49.28L359.457 48.3474L359.454 48.3525L361.226 49.28ZM353.706 57.32L354.729 59.0388L354.739 59.0325L353.706 57.32ZM350.946 47.32L349.33 46.1417L350.946 47.32ZM350.906 27.4L349.31 28.6054L349.317 28.6136L350.906 27.4ZM335.986 25.4L337.126 27.0434L337.131 27.0397L335.986 25.4ZM332.306 30.24L334.17 30.9661L334.173 30.958L332.306 30.24ZM333.946 47.44L332.35 48.6454L332.358 48.6549L332.365 48.6643L333.946 47.44ZM342.386 58.2C338.376 58.2 334.971 57.2999 332.099 55.5675L330.033 58.9925C333.615 61.1535 337.756 62.2 342.386 62.2V58.2ZM332.099 55.5675C329.193 53.8144 326.939 51.4091 325.318 48.3125L321.774 50.1675C323.727 53.8975 326.486 56.8523 330.033 58.9925L332.099 55.5675ZM325.327 48.329C323.732 45.2112 322.906 41.5851 322.906 37.4H318.906C318.906 42.1216 319.841 46.3888 321.766 50.1509L325.327 48.329ZM322.906 37.4C322.906 33.1372 323.757 29.4965 325.392 26.4183L321.86 24.5417C319.869 28.2901 318.906 32.5961 318.906 37.4H322.906ZM325.392 26.4183C327.039 23.3183 329.306 20.9258 332.209 19.1987L330.164 15.7613C326.613 17.8742 323.84 20.8151 321.86 24.5417L325.392 26.4183ZM332.209 19.1987C335.088 17.4857 338.459 16.6 342.386 16.6V12.6C337.834 12.6 333.738 13.6343 330.164 15.7613L332.209 19.1987ZM342.386 16.6C346.426 16.6 349.844 17.5013 352.713 19.2325L354.779 15.8075C351.196 13.6454 347.04 12.6 342.386 12.6V16.6ZM352.713 19.2325C355.615 20.9833 357.869 23.3988 359.491 26.5218L363.041 24.6782C361.09 20.9212 358.331 17.9501 354.779 15.8075L352.713 19.2325ZM359.494 26.5275C361.109 29.6129 361.946 33.2191 361.946 37.4H365.946C365.946 32.6742 364.996 28.4137 363.038 24.6725L359.494 26.5275ZM361.946 37.4C361.946 41.6047 361.097 45.2359 359.457 48.3474L362.995 50.2126C364.982 46.4441 365.946 42.1553 365.946 37.4H361.946ZM359.454 48.3525C357.833 51.4491 355.579 53.8544 352.673 55.6075L354.739 59.0325C358.287 56.8923 361.046 53.9375 362.998 50.2075L359.454 48.3525ZM352.684 55.6013C349.81 57.3109 346.401 58.2 342.386 58.2V62.2C347.011 62.2 351.149 61.1691 354.729 59.0387L352.684 55.6013ZM342.386 53.16C346.713 53.16 350.237 51.6867 352.562 48.4983L349.33 46.1417C347.922 48.0733 345.74 49.16 342.386 49.16V53.16ZM352.562 48.4983C354.74 45.5112 355.746 41.7581 355.746 37.4H351.746C351.746 41.1486 350.885 44.0088 349.33 46.1417L352.562 48.4983ZM355.746 37.4C355.746 32.9236 354.733 29.1172 352.496 26.1864L349.317 28.6136C350.866 30.6428 351.746 33.5031 351.746 37.4H355.746ZM352.502 26.1946C350.152 23.0825 346.656 21.64 342.386 21.64V25.64C345.69 25.64 347.874 26.7042 349.31 28.6054L352.502 26.1946ZM342.386 21.64C339.498 21.64 336.936 22.2975 334.841 23.7603L337.131 27.0397C338.397 26.1559 340.101 25.64 342.386 25.64V21.64ZM334.846 23.7566C332.828 25.1562 331.367 27.1096 330.44 29.522L334.173 30.958C334.845 29.2104 335.837 27.9371 337.126 27.0434L334.846 23.7566ZM330.443 29.5139C329.534 31.8459 329.106 34.4879 329.106 37.4H333.106C333.106 34.8721 333.478 32.7407 334.17 30.9661L330.443 29.5139ZM329.106 37.4C329.106 41.8778 330.12 45.692 332.35 48.6454L335.542 46.2346C333.986 44.1746 333.106 41.2955 333.106 37.4H329.106ZM332.365 48.6643C334.735 51.7255 338.187 53.16 342.386 53.16V49.16C339.172 49.16 336.998 48.1145 335.528 46.2157L332.365 48.6643ZM377.279 57.2L378.399 55.5428L377.279 57.2ZM370.399 49.04L368.591 49.895L370.399 49.04ZM370.399 25.72L368.597 24.8536L368.594 24.8596L370.399 25.72ZM377.399 17.6L378.495 19.2732L378.505 19.2664L377.399 17.6ZM398.359 17.6L397.19 19.2222L397.198 19.2285L397.207 19.2348L398.359 17.6ZM404.719 49.04L406.564 49.8123L406.566 49.8072L404.719 49.04ZM398.279 57.2L399.427 58.8377L398.279 57.2ZM395.399 49.8L396.595 51.4033L396.599 51.4L395.399 49.8ZM398.879 44.8L396.992 44.1393L396.988 44.1498L396.984 44.1604L398.879 44.8ZM398.879 30L396.984 30.6396L396.989 30.6539L396.994 30.6681L398.879 30ZM395.479 25.04L394.253 26.6202L394.262 26.6268L394.271 26.6334L395.479 25.04ZM383.079 25.16L384.275 26.763L384.283 26.757L384.291 26.7509L383.079 25.16ZM379.359 30.28L381.232 30.9823L381.235 30.9746L379.359 30.28ZM379.319 44.6L377.436 45.2741L377.441 45.2882L377.447 45.3022L379.319 44.6ZM382.959 49.68L381.739 51.2643H381.739L382.959 49.68ZM399.999 59H397.999V61H399.999V59ZM399.999 28.68H401.999V26.68H399.999V28.68ZM398.799 28.68H396.799V30.68H398.799V28.68ZM398.799 1.4V-0.600002H396.799V1.4H398.799ZM408.519 1.4H410.519V-0.600002H408.519V1.4ZM408.519 59V61H410.519V59H408.519ZM387.679 58.2C384.059 58.2 380.992 57.2947 378.399 55.5428L376.16 58.8572C379.487 61.1053 383.354 62.2 387.679 62.2V58.2ZM378.399 55.5428C375.756 53.7568 373.691 51.3227 372.207 48.185L368.591 49.895C370.361 53.6373 372.883 56.6432 376.16 58.8572L378.399 55.5428ZM372.207 48.185C370.723 45.0464 369.959 41.4644 369.959 37.4H365.959C365.959 41.9756 366.822 46.1536 368.591 49.895L372.207 48.185ZM369.959 37.4C369.959 33.2779 370.725 29.6859 372.205 26.5804L368.594 24.8596C366.821 28.5807 365.959 32.7755 365.959 37.4H369.959ZM372.202 26.5864C373.707 23.4543 375.805 21.0349 378.495 19.2732L376.304 15.9268C372.967 18.1118 370.398 21.1057 368.597 24.8536L372.202 26.5864ZM378.505 19.2664C381.15 17.5111 384.301 16.6 388.039 16.6V12.6C383.618 12.6 379.675 13.6889 376.293 15.9336L378.505 19.2664ZM388.039 16.6C391.812 16.6 394.821 17.5139 397.19 19.2222L399.529 15.9778C396.351 13.6861 392.48 12.6 388.039 12.6V16.6ZM397.207 19.2348C399.673 20.9724 401.566 23.3673 402.874 26.4923L406.564 24.9477C404.992 21.1927 402.646 18.1743 399.512 15.9652L397.207 19.2348ZM402.874 26.4923C404.197 29.6506 404.879 33.2751 404.879 37.4H408.879C408.879 32.8315 408.122 28.6694 406.564 24.9477L402.874 26.4923ZM404.879 37.4C404.879 41.4676 404.198 45.0817 402.872 48.2728L406.566 49.8072C408.121 46.0649 408.879 41.9191 408.879 37.4H404.879ZM402.874 48.2677C401.57 51.3847 399.653 53.7945 397.131 55.5623L399.427 58.8377C402.612 56.6055 404.989 53.5753 406.564 49.8123L402.874 48.2677ZM397.131 55.5623C394.68 57.2808 391.569 58.2 387.679 58.2V62.2C392.216 62.2 396.172 61.1192 399.427 58.8377L397.131 55.5623ZM389.159 53.56C392.04 53.56 394.581 52.9053 396.595 51.4033L394.204 48.1967C393.071 49.0414 391.452 49.56 389.159 49.56V53.56ZM396.599 51.4C398.563 49.9276 399.942 47.9059 400.774 45.4396L396.984 44.1604C396.377 45.9608 395.436 47.2724 394.199 48.2L396.599 51.4ZM400.767 45.4607C401.603 43.0712 401.999 40.3733 401.999 37.4H397.999C397.999 40.0267 397.649 42.2621 396.992 44.1393L400.767 45.4607ZM401.999 37.4C401.999 34.4033 401.604 31.7013 400.764 29.3319L396.994 30.6681C397.648 32.512 397.999 34.7434 397.999 37.4H401.999ZM400.774 29.3604C399.947 26.9099 398.603 24.8989 396.688 23.4466L394.271 26.6334C395.45 27.5277 396.371 28.8234 396.984 30.6396L400.774 29.3604ZM396.705 23.4598C394.727 21.925 392.262 21.24 389.479 21.24V25.24C391.603 25.24 393.138 25.755 394.253 26.6202L396.705 23.4598ZM389.479 21.24C386.556 21.24 383.968 21.9685 381.867 23.5691L384.291 26.7509C385.551 25.7915 387.23 25.24 389.479 25.24V21.24ZM381.883 23.5569C379.864 25.0638 378.404 27.1005 377.484 29.5854L381.235 30.9746C381.915 29.1395 382.935 27.7629 384.275 26.763L381.883 23.5569ZM377.487 29.5778C376.591 31.9661 376.159 34.5816 376.159 37.4H380.159C380.159 34.9917 380.528 32.8606 381.232 30.9822L377.487 29.5778ZM376.159 37.4C376.159 40.2357 376.575 42.8679 377.436 45.2741L381.202 43.9259C380.517 42.0121 380.159 39.8443 380.159 37.4H376.159ZM377.447 45.3022C378.363 47.7452 379.785 49.759 381.739 51.2643L384.18 48.0957C382.88 47.0943 381.876 45.7215 381.192 43.8978L377.447 45.3022ZM381.739 51.2643C383.787 52.8424 386.311 53.56 389.159 53.56V49.56C386.994 49.56 385.385 49.0242 384.18 48.0957L381.739 51.2643ZM401.999 59V28.68H397.999V59H401.999ZM399.999 26.68H398.799V30.68H399.999V26.68ZM400.799 28.68V1.4H396.799V28.68H400.799ZM398.799 3.4H408.519V-0.600002H398.799V3.4ZM406.519 1.4V59H410.519V1.4H406.519ZM408.519 57H399.999V61H408.519V57ZM425.454 57.36L426.448 55.6244L425.454 57.36ZM417.694 49.48L415.94 50.4406L415.946 50.4513L417.694 49.48ZM417.654 25.6L419.427 26.527L419.429 26.5214L417.654 25.6ZM425.214 17.48L424.192 15.7613L425.214 17.48ZM447.814 17.76L446.695 19.4175L446.703 19.423L446.712 19.4284L447.814 17.76ZM454.814 26.6L452.957 27.3405H452.957L454.814 26.6ZM456.534 40.08V42.08H458.395L458.529 40.224L456.534 40.08ZM446.974 40.08H444.974V42.08H446.974V40.08ZM446.974 36.56H448.974L448.974 36.5486L446.974 36.56ZM444.494 26.28L446.092 25.0768L444.494 26.28ZM428.014 26.72L429.583 27.961L429.589 27.9526L428.014 26.72ZM428.014 47.56L426.453 48.8094L428.014 47.56ZM442.534 49.6L443.575 51.3079L443.583 51.3033L442.534 49.6ZM446.534 45L447.113 43.0857L445.455 42.5839L444.722 44.1542L446.534 45ZM456.054 47.88L457.895 48.6617L458.766 46.6109L456.633 45.9657L456.054 47.88ZM448.374 56.96L447.317 55.2625L447.311 55.2662L448.374 56.96ZM422.094 40.08H420.094V42.08H422.094V40.08ZM422.094 32.8V30.8H420.094V32.8H422.094ZM451.814 32.8H453.814V30.8H451.814V32.8ZM451.814 40.08V42.08H453.814V40.08H451.814ZM436.974 58.2C432.897 58.2 429.41 57.3202 426.448 55.6244L424.461 59.0956C428.112 61.1864 432.305 62.2 436.974 62.2V58.2ZM426.448 55.6244C423.461 53.9139 421.134 51.5528 419.443 48.5087L415.946 50.4513C417.988 54.1272 420.835 57.0194 424.461 59.0956L426.448 55.6244ZM419.449 48.5194C417.791 45.4934 416.934 41.9657 416.934 37.88H412.934C412.934 42.541 413.917 46.7466 415.94 50.4406L419.449 48.5194ZM416.934 37.88C416.934 33.4168 417.791 29.6543 419.427 26.527L415.882 24.673C413.891 28.4791 412.934 32.9032 412.934 37.88H416.934ZM419.429 26.5214C421.08 23.342 423.346 20.9188 426.237 19.1987L424.192 15.7613C420.629 17.8812 417.856 20.8713 415.879 24.6786L419.429 26.5214ZM426.237 19.1987C429.116 17.4857 432.487 16.6 436.414 16.6V12.6C431.862 12.6 427.766 13.6343 424.192 15.7613L426.237 19.1987ZM436.414 16.6C440.573 16.6 443.964 17.5737 446.695 19.4175L448.934 16.1025C445.424 13.733 441.216 12.6 436.414 12.6V16.6ZM446.712 19.4284C449.488 21.2634 451.574 23.8712 452.957 27.3405L456.672 25.8595C455.015 21.7022 452.435 18.4166 448.917 16.0916L446.712 19.4284ZM452.957 27.3405C454.339 30.8092 454.897 34.987 454.54 39.936L458.529 40.224C458.919 34.8264 458.33 30.0174 456.672 25.8595L452.957 27.3405ZM456.534 38.08H446.974V42.08H456.534V38.08ZM448.974 40.08V36.56H444.974V40.08H448.974ZM448.974 36.5486C448.947 31.7078 448.107 27.7529 446.092 25.0768L442.897 27.4832C444.135 29.1271 444.949 32.0255 444.974 36.5714L448.974 36.5486ZM446.092 25.0768C443.981 22.2738 440.735 21.04 436.814 21.04V25.04C439.881 25.04 441.754 25.9662 442.897 27.4832L446.092 25.0768ZM436.814 21.04C432.432 21.04 428.837 22.4238 426.439 25.4874L429.589 27.9526C431.032 26.1096 433.303 25.04 436.814 25.04V21.04ZM426.446 25.479C424.134 28.4005 423.134 32.4779 423.134 37.4H427.134C427.134 32.9354 428.054 29.8929 429.583 27.961L426.446 25.479ZM423.134 37.4C423.134 42.0397 424.15 45.9317 426.453 48.8094L429.576 46.3106C428.038 44.3883 427.134 41.507 427.134 37.4H423.134ZM426.453 48.8094C428.828 51.779 432.26 53.16 436.414 53.16V49.16C433.209 49.16 431.04 48.141 429.576 46.3106L426.453 48.8094ZM436.414 53.16C439.085 53.16 441.5 52.5721 443.575 51.3079L441.494 47.8921C440.155 48.7079 438.49 49.16 436.414 49.16V53.16ZM443.583 51.3033C445.677 50.0143 447.263 48.1689 448.347 45.8458L444.722 44.1542C443.939 45.8311 442.858 47.0524 441.486 47.8967L443.583 51.3033ZM445.955 46.9143L455.475 49.7943L456.633 45.9657L447.113 43.0857L445.955 46.9143ZM454.214 47.0983C452.715 50.6274 450.421 53.3281 447.317 55.2625L449.432 58.6575C453.261 56.2719 456.087 52.9192 457.895 48.6617L454.214 47.0983ZM447.311 55.2662C444.198 57.2211 440.768 58.2 436.974 58.2V62.2C441.501 62.2 445.671 61.0189 449.438 58.6538L447.311 55.2662ZM424.094 40.08V32.8H420.094V40.08H424.094ZM422.094 34.8H451.814V30.8H422.094V34.8ZM449.814 32.8V40.08H453.814V32.8H449.814ZM451.814 38.08H422.094V42.08H451.814V38.08ZM477.619 1.4V-0.600002H476.083L475.687 0.884672L477.619 1.4ZM487.299 1.4L489.232 1.91532L489.903 -0.600002H487.299V1.4ZM471.939 59V61H473.476L473.872 59.5153L471.939 59ZM462.259 59L460.327 58.4847L459.656 61H462.259V59ZM477.619 3.4H487.299V-0.600002H477.619V3.4ZM485.367 0.884672L470.007 58.4847L473.872 59.5153L489.232 1.91532L485.367 0.884672ZM471.939 57H462.259V61H471.939V57ZM464.192 59.5153L479.552 1.91532L475.687 0.884672L460.327 58.4847L464.192 59.5153ZM510.229 53L508.815 54.4142L510.227 55.827L511.641 54.4157L510.229 53ZM504.269 47.04L502.876 45.6049L501.419 47.0188L502.855 48.4542L504.269 47.04ZM517.909 33.8L519.302 35.2351L520.78 33.8L519.302 32.3649L517.909 33.8ZM504.269 20.56L502.855 19.1458L501.419 20.5812L502.876 21.9951L504.269 20.56ZM510.229 14.6L511.641 13.1843L510.227 11.773L508.815 13.1858L510.229 14.6ZM529.469 33.8L530.882 35.2157L532.3 33.8L530.882 32.3843L529.469 33.8ZM511.643 51.5858L505.683 45.6258L502.855 48.4542L508.815 54.4142L511.643 51.5858ZM505.662 48.4751L519.302 35.2351L516.516 32.3649L502.876 45.6049L505.662 48.4751ZM519.302 32.3649L505.662 19.1249L502.876 21.9951L516.516 35.2351L519.302 32.3649ZM505.683 21.9742L511.643 16.0142L508.815 13.1858L502.855 19.1458L505.683 21.9742ZM508.816 16.0157L528.056 35.2157L530.882 32.3843L511.641 13.1843L508.816 16.0157ZM528.056 32.3843L508.816 51.5843L511.641 54.4157L530.882 35.2157L528.056 32.3843Z" fill="#8257E5"/>
</g>
<defs>
<filter id="filter0_d_326_87" x="0.199951" y="0.199951" width="533.269" height="68" filterUnits="userSpaceOnUse" color-interpolation-filters="sRGB">
<feFlood flood-opacity="0" result="BackgroundImageFix"/>
<feColorMatrix in="SourceAlpha" type="matrix" values="0 0 0 0 0 0 0 0 0 0 0 0 0 0 0 0 0 0 127 0" result="hardAlpha"/>
<feOffset dy="4"/>
<feGaussianBlur stdDeviation="2"/>
<feComposite in2="hardAlpha" operator="out"/>
<feColorMatrix type="matrix" values="0 0 0 0 0 0 0 0 0 0 0 0 0 0 0 0 0 0 0.25 0"/>
<feBlend mode="normal" in2="BackgroundImageFix" result="effect1_dropShadow_326_87"/>
<feBlend mode="normal" in="SourceGraphic" in2="effect1_dropShadow_326_87" result="shape"/>
</filter>
</defs>
</svg>
